
<svg xmlns="http://www.w3.org/2000/svg" width="147" height="48" fill="none"><g clip-path="url(#a)"><rect width="48" height="48" fill="#6670FF" rx="24"/><g filter="url(#b)" style="mix-blend-mode:plus-lighter"><path fill="url(#c)" d="M5.187-40.8H36.93L42 67.2H-6l18.852-13.253L-4.8 2.062 5.187-40.8Z"/><path stroke="#6670FF" stroke-width="6" d="m39.791-43.8.135 2.86 5.071 108 .148 3.14h-60.628l7.757-5.454 17.013-11.96L-7.64 3.027l-.275-.812.194-.835 9.987-42.86.54-2.32H39.79Z"/></g><g filter="url(#d)"><path fill="url(#e)" d="M22.773 36H14l4.69-12.5L14 11h8.95c2.57 0 4.778.5 6.624 1.502a10.204 10.204 0 0 1 4.272 4.284c.995 1.864-3.16 4.094-3.16 6.69 0 2.604 4.15 4.842 3.148 6.713a10.208 10.208 0 0 1-4.31 4.31c-1.872 1-4.122 1.501-6.751 1.501Zm-4.083-3.919h3.855c1.804 0 3.308-.317 4.513-.952 1.205-.643 2.111-1.599 2.718-2.868.607-1.278.91-2.873.91-4.785 0-1.913-.303-3.5-.91-4.761-.607-1.27-1.504-2.218-2.693-2.844-1.18-.635-2.646-.953-4.399-.953H18.69v17.163Z" shape-rendering="crispEdges"/></g></g><path fill="url(#f)" d="M67.242 31h-5.648V13.54h5.824c1.71 0 3.184.35 4.418 1.054 1.242.703 2.195 1.707 2.86 3.011.663 1.297.995 2.844.995 4.641 0 1.805-.335 3.363-1.007 4.676a7.068 7.068 0 0 1-2.895 3.023C70.531 30.648 69.016 31 67.242 31Zm-3.047-2.262h2.883c2.04 0 3.547-.574 4.524-1.722.984-1.149 1.476-2.739 1.476-4.77 0-2.023-.484-3.601-1.453-4.734-.969-1.14-2.426-1.711-4.371-1.711h-3.059v12.937Zm18.625 2.543c-1.226 0-2.28-.277-3.164-.832-.875-.555-1.55-1.316-2.027-2.285-.469-.977-.703-2.086-.703-3.328 0-1.258.246-2.375.738-3.352.492-.976 1.172-1.742 2.04-2.297.866-.562 1.862-.843 2.987-.843 1.172 0 2.188.273 3.047.82.868.547 1.54 1.309 2.016 2.285.477.969.715 2.09.715 3.363v.668h-9.106c.047 1.118.368 2.02.961 2.707.602.688 1.445 1.032 2.532 1.032.812 0 1.48-.184 2.003-.551a2.605 2.605 0 0 0 1.043-1.43h2.38c-.15.797-.481 1.5-.997 2.11a5.215 5.215 0 0 1-1.922 1.43c-.765.335-1.613.503-2.543.503Zm-3.433-7.675h6.668c-.102-.985-.45-1.762-1.043-2.333-.594-.578-1.36-.867-2.297-.867-.938 0-1.703.29-2.297.867-.586.57-.93 1.348-1.031 2.332ZM93.242 31l-4.71-12.375h2.648l2.46 6.785c.172.485.337.969.493 1.453.156.485.312.965.469 1.442.156-.477.312-.957.468-1.442.157-.484.317-.968.48-1.453l2.427-6.785h2.613L95.867 31h-2.625Zm13.469 5.063c-1.516 0-2.754-.336-3.715-1.008-.961-.672-1.523-1.614-1.687-2.825h2.472a2.13 2.13 0 0 0 1.02 1.36c.523.304 1.16.457 1.91.457 1 0 1.781-.27 2.344-.809.562-.539.843-1.308.843-2.308v-1.875h-.011c-.43.718-.973 1.25-1.629 1.593-.649.344-1.379.516-2.192.516-1.078 0-2.019-.27-2.824-.809-.804-.546-1.43-1.296-1.875-2.25-.445-.96-.668-2.07-.668-3.328s.223-2.367.668-3.328c.453-.96 1.082-1.71 1.887-2.25.805-.547 1.738-.82 2.801-.82.804 0 1.543.172 2.215.515.671.344 1.214.883 1.628 1.618h.012v-1.887h2.438v12.21c0 1.25-.254 2.259-.762 3.024a4.42 4.42 0 0 1-2.039 1.676c-.852.352-1.797.528-2.836.528Zm-.141-7.02c1.055 0 1.895-.387 2.52-1.16.633-.781.949-1.82.949-3.117s-.316-2.332-.949-3.106c-.625-.781-1.465-1.172-2.52-1.172-1 0-1.812.367-2.437 1.102-.617.726-.926 1.785-.926 3.176 0 1.39.309 2.453.926 3.187.625.727 1.437 1.09 2.437 1.09Zm13.352 2.238c-1.227 0-2.281-.277-3.164-.832a5.542 5.542 0 0 1-2.028-2.285c-.468-.977-.703-2.086-.703-3.328 0-1.258.246-2.375.739-3.352.492-.976 1.172-1.742 2.039-2.297.867-.562 1.863-.843 2.988-.843 1.172 0 2.187.273 3.047.82.867.547 1.539 1.309 2.015 2.285.477.969.715 2.09.715 3.363v.668h-9.105c.047 1.118.367 2.02.961 2.707.601.688 1.445 1.032 2.531 1.032.813 0 1.481-.184 2.004-.551a2.608 2.608 0 0 0 1.043-1.43h2.379a4.49 4.49 0 0 1-.996 2.11 5.22 5.22 0 0 1-1.922 1.43c-.766.335-1.613.503-2.543.503Zm-3.434-7.675h6.668c-.101-.985-.449-1.762-1.043-2.333-.593-.578-1.359-.867-2.297-.867-.937 0-1.703.29-2.296.867-.586.57-.93 1.348-1.032 2.332Zm13.2.269V31h-2.473V18.625h2.426v1.863c.843-1.406 2.089-2.11 3.738-2.11.851 0 1.613.188 2.285.563.68.368 1.215.915 1.606 1.641.39.727.585 1.629.585 2.707V31h-2.472v-7.406c0-.992-.238-1.739-.715-2.239-.477-.507-1.141-.761-1.992-.761-.844 0-1.555.261-2.133.785-.57.515-.855 1.348-.855 2.496Zm16.421-5.25v2.04h-2.507v7.066c0 .46.093.78.281.96.187.18.527.27 1.019.27h1.207V31h-1.558c-2.289 0-3.434-.984-3.434-2.953v-7.383h-2.179v-2.039h2.179V15.25h2.485v3.375h2.507Z"/><defs><linearGradient id="c" x1="20.166" x2="1.646" y1="24.62" y2="34.109" gradientUnits="userSpaceOnUse"><stop stop-color="#fff" stop-opacity=".1"/><stop offset="1" stop-color="#fff"/></linearGradient><linearGradient id="f" x1="76.599" x2="90.748" y1="-16.32" y2="41.256" gradientUnits="userSpaceOnUse"><stop stop-color="#5947FF"/><stop offset=".46" stop-color="#FFF7FF"/><stop offset="1" stop-color="#E5D3FF"/></linearGradient><filter id="b" width="80.455" height="127.2" x="-28.567" y="-50.4" color-interpolation-filters="sRGB" filterUnits="userSpaceOnUse"><feFlood flood-opacity="0" result="BackgroundImageFix"/><feBlend in="SourceGraphic" in2="BackgroundImageFix" result="shape"/><feGaussianBlur result="effect1_foregroundBlur_12748_525" stdDeviation="1.8"/></filter><filter id="d" width="24.8" height="29.8" x="11.6" y="9.8" color-interpolation-filters="sRGB" filterUnits="userSpaceOnUse"><feFlood flood-opacity="0" result="BackgroundImageFix"/><feColorMatrix in="SourceAlpha" result="hardAlpha" values="0 0 0 0 0 0 0 0 0 0 0 0 0 0 0 0 0 0 127 0"/><feOffset dy="1.2"/><feGaussianBlur stdDeviation="1.2"/><feComposite in2="hardAlpha" operator="out"/><feColorMatrix values="0 0 0 0 0.172 0 0 0 0 0.08 0 0 0 0 1 0 0 0 1 0"/><feBlend in2="BackgroundImageFix" result="effect1_dropShadow_12748_525"/><feBlend in="SourceGraphic" in2="effect1_dropShadow_12748_525" result="shape"/></filter><radialGradient id="e" cx="0" cy="0" r="1" gradientTransform="matrix(-20.13184 9.45316 -20.83484 -44.37073 21.915 21.486)" gradientUnits="userSpaceOnUse"><stop stop-color="#B6ADFF"/><stop offset=".977" stop-color="#fff" stop-opacity="0"/></radialGradient><clipPath id="a"><rect width="48" height="48" fill="#fff" rx="24"/></clipPath></defs></svg>
